PathFileType	4	(X/Y/Z)	Patient4_TMGait_0pt6_02_right_33.trc.trc
DataRate	CameraRate	NumFrames	NumMarkers	Units	OrigDataRate	OrigDataStartFrame	OrigNumFrames
83.333333333333	83.333333333333	5	33	mm	83.333333333333	1	       141
Frame#	Time	Sacral			L.Shoulder			Chest			R.Shoulder			Neck			R.ASIS			L.ASIS			R.Thigh.Superior			R.Thigh.Lateral			R.Thigh.Inferior			R.Patella			L.Thigh.Superior			L.Thigh.Lateral			L.Thigh.Inferior			L.Patella			L.Shank.Superior			L.Shank.Lateral			L.Shank.Inferior			R.Shank.Superior			R.Shank.Lateral			R.Shank.Inferior			R.Heel			R.Midfoot.Superior			R.Midfoot.Lateral			R.Toe			L.Heel			L.Midfoot.Lateral			L.Midfoot.Superior			L.Toe			L.Elbow			L.Wrist			R.Elbow			R.Wrist			
		X1	Y1	Z1	X2	Y2	Z2	X3	Y3	Z3	X4	Y4	Z4	X5	Y5	Z5	X6	Y6	Z6	X7	Y7	Z7	X8	Y8	Z8	X9	Y9	Z9	X10	Y10	Z10	X11	Y11	Z11	X12	Y12	Z12	X13	Y13	Z13	X14	Y14	Z14	X15	Y15	Z15	X16	Y16	Z16	X17	Y17	Z17	X18	Y18	Z18	X19	Y19	Z19	X20	Y20	Z20	X21	Y21	Z21	X22	Y22	Z22	X23	Y23	Z23	X24	Y24	Z24	X25	Y25	Z25	X26	Y26	Z26	X27	Y27	Z27	X28	Y28	Z28	X29	Y29	Z29	X30	Y30	Z30	X31	Y31	Z31	X32	Y32	Z32	X33	Y33	Z33	

1	39.710000000000	785.652893296781	1009.184320418950	445.167598270429	971.811237118159	1434.884534008439	258.987464974624	1082.739671001417	1357.642099780145	410.849559654400	1013.505211824840	1436.059046198678	588.708935800627	986.897916757569	1492.131979203665	409.058196493808	1015.053642564463	939.402504703544	546.319232057694	988.901445436077	963.479238644296	274.304941231661	1101.036236489192	778.416957863360	511.591069827145	1070.060431567745	656.579389061785	588.488566259465	1159.286168822343	622.337607670759	504.973903192582	1183.003255584946	506.248497448312	525.512126962120	1039.874458864899	753.202266112769	300.981500996503	948.340419649075	637.723356219918	248.463461778171	1032.873577145275	559.429960485534	310.497866485611	1032.377090455798	489.648950294637	322.343446828670	1005.915678669425	418.133796058393	314.680572058650	916.033674587364	303.427883305562	265.438152511225	966.177275092771	193.534293457492	338.815377766483	1101.790422437052	433.486057491478	534.920252528049	977.841230035276	402.886917264162	595.559273055648	956.670588060252	294.610090987479	548.376021539495	755.816171662947	256.626516032354	518.233336884311	910.475333489221	168.662999578161	561.093396929400	802.119497582083	185.366336349490	590.879611589044	954.927483671056	46.481130957951	584.930859658043	837.070266852693	38.181346321903	384.103742103692	909.395169670751	35.056498346181	301.580962770184	992.403695761439	96.376982406546	326.900511858814	1120.894598194472	45.468524361124	295.984323150550	900.522171450598	1090.984097976384	133.288936005688	1068.977782536924	891.202856042723	125.962392391699	930.448063235474	1101.568679923675	712.417030269266	1073.596130389950	887.380346598126	672.900289199859	
2	39.722000000000	784.125909966919	1009.736635213506	443.672882727836	973.027830837724	1435.050200313660	258.442886398986	1082.789447527065	1357.432060475804	410.876545088918	1012.826136346669	1435.920546674018	588.417070091525	987.209983117637	1492.265702828901	408.619397885982	1013.609123759155	940.129777253530	546.334054390924	988.432339861181	963.588240147632	273.987439146398	1101.563728612660	782.172189628557	511.139824160740	1073.429863877879	660.356169455120	588.604112172921	1162.907389967506	627.644495990705	504.779233660698	1189.278956995134	512.415016662664	525.697965342115	1037.162762186231	752.291083039758	301.087017765536	944.494644461804	637.752508184970	248.159347262842	1027.924359088570	558.609322063959	310.301916592614	1026.661696528539	488.959883539151	322.187541549813	999.944225992895	417.698965854708	314.519550957482	909.595263497908	303.438492643812	265.309709232522	959.147575592561	193.344966644606	338.688188303662	1110.299332083655	437.633916265358	535.040430563091	987.291925112087	402.981015453399	595.059705919103	969.953503834552	294.108248700865	547.894725895563	770.692609204136	248.859654465577	517.157327382995	928.293837522864	167.256662638633	560.424799973483	819.235817174778	179.512762307334	589.882065867202	977.365766485589	47.063020507198	584.652941082131	829.461129155224	38.249344563057	384.057485480297	901.805704777644	35.079439747166	301.560819483292	984.905278045980	96.306043402725	326.872109086952	1113.360694759432	45.132209421047	295.929428137540	904.724538758594	1091.251024052447	131.550750715116	1081.694476976361	900.716080886466	126.587218363268	926.430196116985	1101.897377926528	711.588733445392	1051.974471024440	878.152329501744	678.249380192434	
3	39.734000000000	782.628765152726	1010.285548045904	442.219347882623	974.239060878535	1435.210710539311	257.934111677582	1082.851787372552	1357.210554622468	410.925396081505	1012.178939221475	1435.771109535997	588.157543699766	987.537914684368	1492.391694817038	408.218691487933	1012.175677642374	940.836631330165	546.356319921949	987.925798317856	963.711491900185	273.689757065677	1102.037800744976	785.848013518884	510.723429446316	1076.678838871025	664.045863690097	588.722644839074	1166.392608470529	632.832331666147	504.601486672451	1195.357815860235	518.480359093554	525.899291917326	1034.486758971340	751.385373270899	301.219271379248	940.695530483789	637.779804914812	247.868167082356	1023.015055223820	557.795084408439	310.130977571331	1020.988122825413	488.282700543301	322.051911892586	994.026609166022	417.271938928457	314.373347751288	903.219586090438	303.448283599868	265.188795574044	952.183520970647	193.155797601757	338.573502682233	1118.650309856540	441.681582451786	535.199134536652	996.630096468216	402.927523806666	594.637215246753	983.172561860073	293.468884134629	547.518157576205	785.537164480198	240.877950458716	516.263268560825	946.095652559755	165.706756963362	559.872914076127	836.396976925136	173.510660401070	589.087723293392	999.843547246607	47.564004430255	584.503510246332	821.935920549230	38.313375172597	384.009355141957	894.297715207438	35.100121411856	301.541808940537	977.485270673841	96.238719367553	326.844650859873	1105.907052606293	44.806423402979	295.876098762834	908.875776905762	1091.527006997494	129.865460299956	1094.193905748515	910.224320675135	127.242043950820	922.449548631906	1102.259008489446	710.834273704138	1030.648186510977	869.407537918439	683.490357522972	
4	39.746000000000	781.201109994432	1010.824679979967	440.852790485936	975.454832351843	1435.357692863788	257.503310367945	1082.945895536734	1356.961052048983	411.027169742410	1011.600062119928	1435.597788615272	587.968825562866	987.907647799607	1492.498395054055	407.900041114447	1010.770456851271	941.497105910015	546.400105212212	987.349861393626	963.852995176984	273.439038183108	1102.389437446758	789.326123139532	510.383018744336	1079.633633036025	667.517793471382	588.859511734081	1169.554688157278	637.721563954927	504.476362866058	1200.991142767498	524.308909966726	526.138942355534	1031.859661159732	750.481421479102	301.400721116576	936.950129483524	637.805137334753	247.604154536295	1018.139815547847	556.987902896059	310.005616645329	1015.349499213973	487.626330149581	321.951244497635	988.164215173448	416.860839540869	314.253829118635	896.912296895289	303.459559644415	265.083375323750	945.296075704417	192.969454600853	338.481811719820	1126.668103855057	445.509576520154	535.439419230970	1005.811584785314	402.532131073833	594.399581471612	996.364345482050	292.544030500511	547.355480894149	800.539465744531	232.383823818631	515.752412801800	964.033035947096	163.907544340535	559.564272610484	853.865084825475	167.186314420242	588.702939554335	1022.588585827283	48.026310235276	584.602401792942	814.517523060810	38.372918458353	383.959482643629	886.891613342158	35.118314197041	301.525495698190	970.161817424137	96.177331968634	326.819707482429	1098.552193970294	44.500426203407	295.826119737028	912.953181518252	1091.822168867353	128.282005312643	1106.304797692328	919.797339401442	127.972350549976	918.495208573169	1102.711428445538	710.232801282878	1009.850088366507	861.611823644491	688.537792063225	
5	39.758000000000	779.879540740829	1011.350506220054	439.610896071783	976.687705147376	1435.483599686913	257.187245685319	1083.089762011867	1356.669086601522	411.210256841299	1011.120650670482	1435.389891906746	587.883873335972	988.344265189109	1492.575541505639	407.701471799430	1009.409357433908	942.087726608344	546.478253505375	986.675877155422	964.010679794573	273.261009458179	1102.557737176923	792.497159998472	510.151854404443	1082.135887786103	670.649323384693	589.027177810407	1172.226163511700	642.144139742705	504.436783105174	1205.960035826827	529.775848230947	526.433457102820	1029.285387104141	749.572338620895	301.644719541529	933.248635472529	637.828551279255	247.380279782775	1013.277221294315	556.185829350048	309.940926639641	1009.723601677106	486.996837917720	321.895917835141	982.340145975811	416.472232274128	314.169559913665	890.657836927967	303.475317581601	265.000673964723	938.475745823050	192.788966035996	338.421113876278	1134.204938987648	449.013301771001	535.792252434025	1014.830358909788	401.620657998167	594.446339516834	1009.593682406609	291.213454134659	547.495226973471	815.934307832264	223.114465977947	515.798081004790	982.286698030870	161.791904648848	559.603685215484	871.924739932119	160.396393061860	588.894329228210	1045.846658907522	48.533444963407	585.045082296502	807.202564087770	38.428680217245	383.907950364053	879.582358890215	35.134500898356	301.513299299286	962.928687469000	96.123576078752	326.798890137688	1091.289174146398	44.221284167766	295.780788808159	916.948722036210	1092.145635583059	126.837585041005	1117.904535519068	929.514989392878	128.819706415796	914.532312079644	1103.309550537351	709.846499591279	989.755105348516	855.126375924141	693.332975202199	
